ffmpeg version 7.1.1 Copyright (c) 2000-2025 the FFmpeg developers
  built with Apple clang version 17.0.0 (clang-1700.0.13.5)
  configuration: --prefix=/opt/homebrew/Cellar/ffmpeg/7.1.1-with-options --enable-shared --cc=clang --host-cflags= --host-ldflags= --enable-gpl --enable-libaom --enable-libdav1d --enable-libmp3lame --enable-libopus --enable-libsnappy --enable-libtheora --enable-libvorbis --enable-libvpx --enable-libx264 --enable-libx265 --enable-libfontconfig --enable-libfreetype --enable-frei0r --enable-libass --enable-demuxer=dash --enable-opencl --enable-audiotoolbox --enable-videotoolbox --enable-neon --disable-htmlpages --enable-libcaca --enable-libfdk-aac --enable-libgsm --enable-libmodplug --enable-librtmp --enable-libsoxr --enable-libssh --enable-libtwolame --enable-libvidstab --enable-nonfree
  libavutil      59. 39.100 / 59. 39.100
  libavcodec     61. 19.101 / 61. 19.101
  libavformat    61.  7.100 / 61.  7.100
  libavdevice    61.  3.100 / 61.  3.100
  libavfilter    10.  4.100 / 10.  4.100
  libswscale      8.  3.100 /  8.  3.100
  libswresample   5.  3.100 /  5.  3.100
  libpostproc    58.  3.100 / 58.  3.100
[mp3 @ 0x148306360] Skipping 84 bytes of junk at 0.
Input #0, mp3, from 'http://stream1.skyviewnetworks.com:8010/MSNBC?aw_0_1st.premium=true&partnerID=BotTIStream&playerid=BotTIStream&aw_0_1st.ads_partner_alias=bot.TIStream':
  Metadata:
    icy-br          : 128
    icy-description : Feed From CrossPort Server
    icy-genre       : TV
    icy-name        : MSNBC
    icy-pub         : False
    StreamTitle     : #
  Duration: N/A, start: 0.000000, bitrate: 128 kb/s
  Stream #0:0: Audio: mp3 (mp3float), 44100 Hz, stereo, fltp, 128 kb/s
Stream mapping:
  Stream #0:0 -> #0:0 (mp3 (mp3float) -> pcm_s16le (native))
Press [q] to stop, [?] for help
Output #0, wav, to '/Users/rblaney-x/Projects/CDN-Benchmark-Suite/cdn-benchmark-cli/test-audio/msnbc_icecast_source_240s.wav':
  Metadata:
    icy-br          : 128
    icy-description : Feed From CrossPort Server
    icy-genre       : TV
    icy-name        : MSNBC
    icy-pub         : False
    StreamTitle     : #
    ISFT            : Lavf61.7.100
  Stream #0:0: Audio: pcm_s16le ([1][0][0][0] / 0x0001), 44100 Hz, stereo, s16, 1411 kb/s
      Metadata:
        encoder         : Lavc61.19.101 pcm_s16le
size=    1280KiB time=00:00:08.69 bitrate=1205.4kbits/s speed=17.3x    size=    1536KiB time=00:00:09.22 bitrate=1364.6kbits/s speed=9.15x    size=    1536KiB time=00:00:09.66 bitrate=1301.9kbits/s speed=6.39x    size=    1536KiB time=00:00:10.18 bitrate=1235.1kbits/s speed=5.05x    size=    1792KiB time=00:00:10.63 bitrate=1380.8kbits/s speed=4.22x    size=    1792KiB time=00:00:11.15 bitrate=1316.1kbits/s speed= 3.7x    size=    1792KiB time=00:00:11.72 bitrate=1251.6kbits/s speed=3.33x    size=    2048KiB time=00:00:12.12 bitrate=1384.2kbits/s speed=3.01x    size=    2048KiB time=00:00:12.74 bitrate=1316.1kbits/s speed=2.82x    size=    2048KiB time=00:00:13.19 bitrate=1271.8kbits/s speed=2.62x    size=    2304KiB time=00:00:13.71 bitrate=1376.3kbits/s speed=2.48x    size=    2304KiB time=00:00:14.15 bitrate=1333.1kbits/s speed=2.35x    size=    2304KiB time=00:00:14.68 bitrate=1285.6kbits/s speed=2.25x    size=    2560KiB time=00:00:15.17 bitrate=1381.8kbits/s speed=2.15x    size=    2560KiB time=00:00:15.77 bitrate=1329.2kbits/s speed=2.09x    size=    2560KiB time=00:00:16.27 bitrate=1288.6kbits/s speed=2.02x    size=    2816KiB time=00:00:16.71 bitrate=1379.8kbits/s speed=1.95x    size=    2816KiB time=00:00:17.11 bitrate=1348.2kbits/s speed=1.89x    size=    2816KiB time=00:00:17.68 bitrate=1304.4kbits/s speed=1.85x    size=    3072KiB time=00:00:18.20 bitrate=1382.2kbits/s speed=1.81x    size=    3072KiB time=00:00:18.72 bitrate=1343.6kbits/s speed=1.77x    size=    3072KiB time=00:00:19.22 bitrate=1308.9kbits/s speed=1.74x    size=    3328KiB time=00:00:19.74 bitrate=1380.5kbits/s speed=1.71x    size=    3328KiB time=00:00:20.32 bitrate=1341.5kbits/s speed=1.68x    size=    3328KiB time=00:00:20.71 bitrate=1316.1kbits/s speed=1.65x    size=    3584KiB time=00:00:21.28 bitrate=1379.1kbits/s speed=1.63x    size=    3584KiB time=00:00:21.78 bitrate=1347.7kbits/s speed= 1.6x    size=    3584KiB time=00:00:22.25 bitrate=1319.2kbits/s speed=1.58x    size=    3840KiB time=00:00:22.75 bitrate=1382.6kbits/s speed=1.56x    size=    3840KiB time=00:00:23.27 bitrate=1351.5kbits/s speed=1.54x    size=    3840KiB time=00:00:23.79 bitrate=1321.9kbits/s speed=1.53x    size=    4096KiB time=00:00:24.24 bitrate=1384.2kbits/s speed=1.51x    size=    4096KiB time=00:00:24.68 bitrate=1359.3kbits/s speed=1.49x    size=    4096KiB time=00:00:25.28 bitrate=1327.0kbits/s speed=1.48x    size=    4352KiB time=00:00:25.70 bitrate=1387.0kbits/s speed=1.46x    size=    4352KiB time=00:00:26.35 bitrate=1352.6kbits/s speed=1.46x    size=    4608KiB time=00:00:26.80 bitrate=1408.4kbits/s speed=1.44x    size=    4608KiB time=00:00:27.24 bitrate=1385.5kbits/s speed=1.43x    size=    4608KiB time=00:00:27.76 bitrate=1359.4kbits/s speed=1.42x    size=    4608KiB time=00:00:28.21 bitrate=1338.0kbits/s speed= 1.4x    size=    4864KiB time=00:00:28.73 bitrate=1386.7kbits/s speed=1.39x    size=    4864KiB time=00:00:29.23 bitrate=1363.1kbits/s speed=1.38x    size=    5120KiB time=00:00:29.75 bitrate=1409.7kbits/s speed=1.38x    size=    5120KiB time=00:00:30.27 bitrate=1385.4kbits/s speed=1.37x    size=    5120KiB time=00:00:30.85 bitrate=1359.6kbits/s speed=1.36x    size=    5376KiB time=00:00:31.29 bitrate=1407.3kbits/s speed=1.35x    size=    5376KiB time=00:00:31.79 bitrate=1385.3kbits/s speed=1.35x    size=    5376KiB time=00:00:32.31 bitrate=1362.9kbits/s speed=1.34x    size=    5632KiB time=00:00:32.83 bitrate=1405.1kbits/s speed=1.33x    size=    5632KiB time=00:00:33.28 bitrate=1386.3kbits/s speed=1.32x    size=    5632KiB time=00:00:33.80 bitrate=1364.9kbits/s speed=1.32x    size=    5888KiB time=00:00:34.29 bitrate=1406.3kbits/s speed=1.31x    size=    5888KiB time=00:00:34.74 bitrate=1388.3kbits/s speed= 1.3x    size=    5888KiB time=00:00:35.26 bitrate=1367.8kbits/s speed= 1.3x    size=    6144KiB time=00:00:35.84 bitrate=1404.3kbits/s speed= 1.3x    size=    6144KiB time=00:00:36.41 bitrate=1382.2kbits/s speed=1.29x    size=    6144KiB time=00:00:36.80 bitrate=1367.5kbits/s speed=1.28x    size=    6400KiB time=00:00:37.32 bitrate=1404.5kbits/s speed=1.28x    size=    6400KiB time=00:00:37.82 bitrate=1386.1kbits/s speed=1.27x    size=    6400KiB time=00:00:38.29 bitrate=1369.1kbits/s speed=1.27x    size=    6656KiB time=00:00:38.79 bitrate=1405.6kbits/s speed=1.26x    size=    6656KiB time=00:00:39.31 bitrate=1386.9kbits/s speed=1.26x    size=    6656KiB time=00:00:39.75 bitrate=1371.4kbits/s speed=1.25x    size=    6912KiB time=00:00:40.28 bitrate=1405.7kbits/s speed=1.25x    size=    6912KiB time=00:00:40.85 bitrate=1385.9kbits/s speed=1.25x    size=    6912KiB time=00:00:41.35 bitrate=1369.3kbits/s speed=1.25x    size=    7168KiB time=00:00:41.87 bitrate=1402.3kbits/s speed=1.24x    size=    7168KiB time=00:00:42.39 bitrate=1385.0kbits/s speed=1.24x    size=    7168KiB time=00:00:42.89 bitrate=1369.0kbits/s speed=1.24x    size=    7424KiB time=00:00:43.36 bitrate=1402.5kbits/s speed=1.23x    size=    7424KiB time=00:00:43.99 bitrate=1382.5kbits/s speed=1.23x    size=    7424KiB time=00:00:44.43 bitrate=1368.7kbits/s speed=1.23x    size=    7680KiB time=00:00:44.95 bitrate=1399.4kbits/s speed=1.22x    size=    7680KiB time=00:00:45.40 bitrate=1385.8kbits/s speed=1.22x    size=    7680KiB time=00:00:45.79 bitrate=1373.9kbits/s speed=1.21x    size=    7936KiB time=00:00:46.41 bitrate=1400.5kbits/s speed=1.21x    size=    7936KiB time=00:00:46.88 bitrate=1386.5kbits/s speed=1.21x    size=    7936KiB time=00:00:47.38 bitrate=1372.0kbits/s speed=1.21x    size=    8192KiB time=00:00:47.90 bitrate=1400.8kbits/s speed= 1.2x    size=    8192KiB time=00:00:48.35 bitrate=1387.9kbits/s speed= 1.2x    size=    8192KiB time=00:00:48.87 bitrate=1373.1kbits/s speed= 1.2x    size=    8448KiB time=00:00:49.44 bitrate=1399.5kbits/s speed= 1.2x    size=    8448KiB time=00:00:49.94 bitrate=1385.6kbits/s speed= 1.2x    size=    8448KiB time=00:00:50.46 bitrate=1371.3kbits/s speed=1.19x    size=    8704KiB time=00:00:50.91 bitrate=1400.5kbits/s speed=1.19x    size=    8704KiB time=00:00:51.43 bitrate=1386.3kbits/s speed=1.19x    size=    8704KiB time=00:00:51.87 bitrate=1374.4kbits/s speed=1.18x    size=    8960KiB time=00:00:52.40 bitrate=1400.7kbits/s speed=1.18x    size=    8960KiB time=00:00:52.89 bitrate=1387.6kbits/s speed=1.18x    size=    9216KiB time=00:00:53.55 bitrate=1409.8kbits/s speed=1.18x    size=    9216KiB time=00:00:53.99 bitrate=1398.2kbits/s speed=1.18x    size=    9216KiB time=00:00:54.51 bitrate=1384.8kbits/s speed=1.18x    size=    9472KiB time=00:00:55.01 bitrate=1410.5kbits/s speed=1.18x    size=    9472KiB time=00:00:55.48 bitrate=1398.5kbits/s speed=1.17x    size=    9472KiB time=00:00:55.98 bitrate=1386.1kbits/s speed=1.17x    size=    9728KiB time=00:00:56.50 bitrate=1410.4kbits/s speed=1.17x    size=    9728KiB time=00:00:56.94 bitrate=1399.4kbits/s speed=1.17x    size=    9728KiB time=00:00:57.60 bitrate=1383.5kbits/s speed=1.17x    size=    9728KiB time=00:00:57.96 bitrate=1374.8kbits/s speed=1.16x    size=    9984KiB time=00:00:58.54 bitrate=1397.1kbits/s speed=1.16x    size=    9984KiB time=00:00:59.01 bitrate=1386.0kbits/s speed=1.16x    size=   10240KiB time=00:00:59.50 bitrate=1409.7kbits/s speed=1.16x    size=   10240KiB time=00:01:00.08 bitrate=1396.2kbits/s speed=1.16x    size=   10240KiB time=00:01:00.47 bitrate=1387.2kbits/s speed=1.15x    size=   10496KiB time=00:01:01.04 bitrate=1408.4kbits/s speed=1.15x    size=   10496KiB time=00:01:01.49 bitrate=1398.3kbits/s speed=1.15x    size=   10496KiB time=00:01:01.96 bitrate=1387.7kbits/s speed=1.15x    size=   10752KiB time=00:01:02.58 bitrate=1407.3kbits/s speed=1.15x    size=   10752KiB time=00:01:02.98 bitrate=1398.5kbits/s speed=1.15x    size=   10752KiB time=00:01:03.60 bitrate=1384.7kbits/s speed=1.15x    size=   11008KiB time=00:01:04.07 bitrate=1407.3kbits/s speed=1.15x    size=   11008KiB time=00:01:04.52 bitrate=1397.6kbits/s speed=1.14x    size=   11008KiB time=00:01:05.04 bitrate=1386.4kbits/s speed=1.14x    size=   11264KiB time=00:01:05.54 bitrate=1407.9kbits/s speed=1.14x    size=   11264KiB time=00:01:06.06 bitrate=1396.8kbits/s speed=1.14x    size=   11264KiB time=00:01:06.32 bitrate=1391.3kbits/s speed=1.14x    size=   11520KiB time=00:01:07.16 bitrate=1405.2kbits/s speed=1.14x    size=   11520KiB time=00:01:07.65 bitrate=1394.9kbits/s speed=1.14x    size=   11520KiB time=00:01:08.10 bitrate=1385.8kbits/s speed=1.14x    size=   11776KiB time=00:01:08.62 bitrate=1405.8kbits/s speed=1.14x    size=   11776KiB time=00:01:09.06 bitrate=1396.7kbits/s speed=1.13x    size=   11776KiB time=00:01:09.59 bitrate=1386.2kbits/s speed=1.13x    size=   12032KiB time=00:01:10.11 bitrate=1405.8kbits/s speed=1.13x    size=   12032KiB time=00:01:10.60 bitrate=1395.9kbits/s speed=1.13x    size=   12032KiB time=00:01:11.18 bitrate=1384.7kbits/s speed=1.13x    size=   12288KiB time=00:01:11.57 bitrate=1406.4kbits/s speed=1.13x    size=   12288KiB time=00:01:12.01 bitrate=1397.7kbits/s speed=1.13x    size=   12288KiB time=00:01:12.54 bitrate=1387.7kbits/s speed=1.13x    size=   12544KiB time=00:01:13.11 bitrate=1405.4kbits/s speed=1.13x    size=   12544KiB time=00:01:13.69 bitrate=1394.5kbits/s speed=1.13x    size=   12544KiB time=00:01:14.13 bitrate=1386.1kbits/s speed=1.12x    size=   12800KiB time=00:01:14.57 bitrate=1406.0kbits/s speed=1.12x    size=   12800KiB time=00:01:15.10 bitrate=1396.2kbits/s speed=1.12x    size=   12800KiB time=00:01:15.54 bitrate=1388.0kbits/s speed=1.12x    size=   13056KiB time=00:01:16.06 bitrate=1406.0kbits/s speed=1.12x    size=   13056KiB time=00:01:16.59 bitrate=1396.4kbits/s speed=1.12x    size=   13056KiB time=00:01:17.16 bitrate=1386.0kbits/s speed=1.12x    size=   13312KiB time=00:01:17.66 bitrate=1404.2kbits/s speed=1.12x    size=   13312KiB time=00:01:18.18 bitrate=1394.8kbits/s speed=1.12x    size=   13312KiB time=00:01:18.62 bitrate=1386.9kbits/s speed=1.12x    size=   13568KiB time=00:01:19.15 bitrate=1404.3kbits/s speed=1.11x    size=   13568KiB time=00:01:19.64 bitrate=1395.5kbits/s speed=1.11x    size=   13568KiB time=00:01:20.16 bitrate=1386.4kbits/s speed=1.11x    size=   13824KiB time=00:01:20.74 bitrate=1402.5kbits/s speed=1.11x    size=   13824KiB time=00:01:21.13 bitrate=1395.8kbits/s speed=1.11x    size=   13824KiB time=00:01:21.71 bitrate=1385.9kbits/s speed=1.11x    size=   14080KiB time=00:01:22.10 bitrate=1404.9kbits/s speed=1.11x    size=   14080KiB time=00:01:22.67 bitrate=1395.1kbits/s speed=1.11x    size=   14080KiB time=00:01:23.17 bitrate=1386.8kbits/s speed=1.11x    size=   14336KiB time=00:01:23.69 bitrate=1403.2kbits/s speed=1.11x    size=   14336KiB time=00:01:24.21 bitrate=1394.5kbits/s speed=1.11x    size=   14336KiB time=00:01:24.66 bitrate=1387.2kbits/s speed=1.11x    size=   14592KiB time=00:01:25.18 bitrate=1403.3kbits/s speed=1.11x    size=   14592KiB time=00:01:25.62 bitrate=1396.0kbits/s speed= 1.1x    size=   14592KiB time=00:01:26.12 bitrate=1387.9kbits/s speed= 1.1x    size=   14848KiB time=00:01:26.59 bitrate=1404.6kbits/s speed= 1.1x    size=   14848KiB time=00:01:27.30 bitrate=1393.3kbits/s speed= 1.1x    size=   15104KiB time=00:01:27.74 bitrate=1410.1kbits/s speed= 1.1x    size=   15104KiB time=00:01:28.18 bitrate=1403.0kbits/s speed= 1.1x    size=   15104KiB time=00:01:28.71 bitrate=1394.8kbits/s speed= 1.1x    size=   15360KiB time=00:01:29.20 bitrate=1410.5kbits/s speed= 1.1x    size=   15360KiB time=00:01:29.65 bitrate=1403.5kbits/s speed= 1.1x    size=   15360KiB time=00:01:30.30 bitrate=1393.4kbits/s speed= 1.1x    size=   15616KiB time=00:01:30.69 bitrate=1410.5kbits/s speed= 1.1x    size=   15616KiB time=00:01:31.32 bitrate=1400.8kbits/s speed= 1.1x    size=   15616KiB time=00:01:31.79 bitrate=1393.6kbits/s speed= 1.1x    size=   15872KiB time=00:01:32.29 bitrate=1408.8kbits/s speed= 1.1x    size=   15872KiB time=00:01:32.73 bitrate=1402.1kbits/s speed= 1.1x    size=   15872KiB time=00:01:33.41 bitrate=1391.9kbits/s speed= 1.1x    size=   16128KiB time=00:01:33.77 bitrate=1408.8kbits/s speed= 1.1x    size=   16128KiB time=00:01:34.22 bitrate=1402.2kbits/s speed=1.09x    size=   16128KiB time=00:01:34.85 bitrate=1392.9kbits/s speed= 1.1x    size=   16384KiB time=00:01:35.32 bitrate=1408.1kbits/s speed=1.09x    size=   16384KiB time=00:01:35.68 bitrate=1402.7kbits/s speed=1.09x    size=   16384KiB time=00:01:36.26 bitrate=1394.3kbits/s speed=1.09x    size=   16640KiB time=00:01:36.78 bitrate=1408.4kbits/s speed=1.09x    size=   16640KiB time=00:01:37.30 bitrate=1400.9kbits/s speed=1.09x    size=   16640KiB time=00:01:37.80 bitrate=1393.8kbits/s speed=1.09x    size=   16896KiB time=00:01:38.27 bitrate=1408.4kbits/s speed=1.09x    size=   16896KiB time=00:01:38.71 bitrate=1402.1kbits/s speed=1.09x    size=   16896KiB time=00:01:39.21 bitrate=1395.1kbits/s speed=1.09x    size=   17152KiB time=00:01:39.86 bitrate=1407.0kbits/s speed=1.09x    size=   17152KiB time=00:01:40.25 bitrate=1401.5kbits/s speed=1.09x    size=   17152KiB time=00:01:40.88 bitrate=1392.8kbits/s speed=1.09x    size=   17408KiB time=00:01:41.32 bitrate=1407.4kbits/s speed=1.09x    size=   17408KiB time=00:01:41.85 bitrate=1400.1kbits/s speed=1.09x    size=   17408KiB time=00:01:42.37 bitrate=1393.0kbits/s speed=1.09x    size=   17664KiB time=00:01:42.81 bitrate=1407.4kbits/s speed=1.09x    size=   17664KiB time=00:01:43.44 bitrate=1398.8kbits/s speed=1.09x    size=   17664KiB time=00:01:43.91 bitrate=1392.5kbits/s speed=1.09x    size=   17920KiB time=00:01:44.28 bitrate=1407.7kbits/s speed=1.08x    size=   17920KiB time=00:01:44.93 bitrate=1399.0kbits/s speed=1.09x    size=   17920KiB time=00:01:45.37 bitrate=1393.1kbits/s speed=1.08x    size=   18176KiB time=00:01:45.90 bitrate=1406.0kbits/s speed=1.08x    size=   18176KiB time=00:01:46.34 bitrate=1400.1kbits/s speed=1.08x    size=   18176KiB time=00:01:46.86 bitrate=1393.3kbits/s speed=1.08x    size=   18432KiB time=00:01:47.36 bitrate=1406.4kbits/s speed=1.08x    size=   18432KiB time=00:01:47.88 bitrate=1399.6kbits/s speed=1.08x    size=   18432KiB time=00:01:48.46 bitrate=1392.2kbits/s speed=1.08x    size=   18688KiB time=00:01:48.85 bitrate=1406.4kbits/s speed=1.08x    size=   18688KiB time=00:01:49.29 bitrate=1400.7kbits/s speed=1.08x    size=   18688KiB time=00:01:49.87 bitrate=1393.4kbits/s speed=1.08x    size=   18944KiB time=00:01:50.39 bitrate=1405.8kbits/s speed=1.08x    size=   18944KiB time=00:01:50.88 bitrate=1399.5kbits/s speed=1.08x    size=   18944KiB time=00:01:51.41 bitrate=1392.9kbits/s speed=1.08x    size=   19200KiB time=00:01:51.85 bitrate=1406.1kbits/s speed=1.08x    size=   19200KiB time=00:01:52.37 bitrate=1399.6kbits/s speed=1.08x    size=   19200KiB time=00:01:52.87 bitrate=1393.5kbits/s speed=1.08x    size=   19456KiB time=00:01:53.47 bitrate=1404.6kbits/s speed=1.08x    size=   19456KiB time=00:01:53.97 bitrate=1398.4kbits/s speed=1.08x    size=   19712KiB time=00:01:54.49 bitrate=1410.4kbits/s speed=1.08x    size=   19712KiB time=00:01:54.99 bitrate=1404.3kbits/s speed=1.08x    size=   19712KiB time=00:01:55.46 bitrate=1398.6kbits/s speed=1.08x    size=   19968KiB time=00:01:55.95 bitrate=1410.7kbits/s speed=1.08x    size=   19968KiB time=00:01:56.40 bitrate=1405.3kbits/s speed=1.07x    size=   19968KiB time=00:01:56.87 bitrate=1399.6kbits/s speed=1.07x    size=   20224KiB time=00:01:57.44 bitrate=1410.6kbits/s speed=1.07x    size=   20224KiB time=00:01:58.02 bitrate=1403.8kbits/s speed=1.07x    size=   20224KiB time=00:01:58.54 bitrate=1397.6kbits/s speed=1.07x    size=   20480KiB time=00:01:58.98 bitrate=1410.0kbits/s speed=1.07x    size=   20480KiB time=00:01:59.43 bitrate=1404.8kbits/s speed=1.07x    size=   20480KiB time=00:01:59.95 bitrate=1398.6kbits/s speed=1.07x    size=   20736KiB time=00:02:00.45 bitrate=1410.3kbits/s speed=1.07x    size=   20736KiB time=00:02:01.10 bitrate=1402.7kbits/s speed=1.07x    size=   20736KiB time=00:02:01.41 bitrate=1399.1kbits/s speed=1.07x    size=   20992KiB time=00:02:01.93 bitrate=1410.3kbits/s speed=1.07x    size=   20992KiB time=00:02:02.43 bitrate=1404.5kbits/s speed=1.07x    size=   20992KiB time=00:02:02.88 bitrate=1399.5kbits/s speed=1.07x    size=   21248KiB time=00:02:03.40 bitrate=1410.5kbits/s speed=1.07x    size=   21248KiB time=00:02:03.97 bitrate=1404.0kbits/s speed=1.07x    size=   21248KiB time=00:02:04.49 bitrate=1398.1kbits/s speed=1.07x    size=   21504KiB time=00:02:05.02 bitrate=1409.0kbits/s speed=1.07x    size=   21504KiB time=00:02:05.51 bitrate=1403.5kbits/s speed=1.07x    size=   21504KiB time=00:02:06.04 bitrate=1397.6kbits/s speed=1.07x    size=   21760KiB time=00:02:06.48 bitrate=1409.3kbits/s speed=1.07x    size=   21760KiB time=00:02:06.92 bitrate=1404.4kbits/s speed=1.07x    size=   21760KiB time=00:02:07.58 bitrate=1397.2kbits/s speed=1.07x    size=   22016KiB time=00:02:08.02 bitrate=1408.7kbits/s speed=1.07x    size=   22016KiB time=00:02:08.60 bitrate=1402.4kbits/s speed=1.07x    size=   22016KiB time=00:02:09.04 bitrate=1397.6kbits/s speed=1.07x    size=   22272KiB time=00:02:09.48 bitrate=1409.0kbits/s speed=1.07x    size=   22272KiB time=00:02:10.01 bitrate=1403.4kbits/s speed=1.07x    size=   22272KiB time=00:02:10.53 bitrate=1397.7kbits/s speed=1.07x    size=   22528KiB time=00:02:11.16 bitrate=1407.0kbits/s speed=1.07x    size=   22528KiB time=00:02:11.50 bitrate=1403.4kbits/s speed=1.07x    size=   22528KiB time=00:02:11.99 bitrate=1398.1kbits/s speed=1.07x    size=   22784KiB time=00:02:12.57 bitrate=1407.9kbits/s speed=1.07x    size=   22784KiB time=00:02:12.96 bitrate=1403.7kbits/s speed=1.06x    size=   22784KiB time=00:02:13.53 bitrate=1397.7kbits/s speed=1.06x    size=   23040KiB time=00:02:14.06 bitrate=1407.9kbits/s speed=1.06x    size=   23040KiB time=00:02:14.63 bitrate=1401.9kbits/s speed=1.07x    size=   23040KiB time=00:02:15.07 bitrate=1397.3kbits/s speed=1.06x    size=   23296KiB time=00:02:15.52 bitrate=1408.2kbits/s speed=1.06x    size=   23296KiB time=00:02:16.04 bitrate=1402.8kbits/s speed=1.06x    size=   23296KiB time=00:02:16.56 bitrate=1397.4kbits/s speed=1.06x    size=   23552KiB time=00:02:17.14 bitrate=1406.8kbits/s speed=1.06x    size=   23552KiB time=00:02:17.63 bitrate=1401.8kbits/s speed=1.06x    size=   23552KiB time=00:02:18.16 bitrate=1396.5kbits/s speed=1.06x    size=   23808KiB time=00:02:18.68 bitrate=1406.3kbits/s speed=1.06x    size=   23808KiB time=00:02:19.12 bitrate=1401.8kbits/s speed=1.06x    size=   23808KiB time=00:02:19.57 bitrate=1397.4kbits/s speed=1.06x    size=   24064KiB time=00:02:20.09 bitrate=1407.1kbits/s speed=1.06x    size=   24064KiB time=00:02:20.80 bitrate=1400.1kbits/s speed=1.06x    size=   24064KiB time=00:02:21.16 bitrate=1396.5kbits/s speed=1.06x    size=   24320KiB time=00:02:21.68 bitrate=1406.1kbits/s speed=1.06x    size=   24320KiB time=00:02:22.21 bitrate=1400.9kbits/s speed=1.06x    size=   24320KiB time=00:02:22.65 bitrate=1396.6kbits/s speed=1.06x    size=   24576KiB time=00:02:23.15 bitrate=1406.4kbits/s speed=1.06x    size=   24576KiB time=00:02:23.62 bitrate=1401.8kbits/s speed=1.06x    size=   24576KiB time=00:02:24.11 bitrate=1397.0kbits/s speed=1.06x    size=   24832KiB time=00:02:24.64 bitrate=1406.4kbits/s speed=1.06x    size=   24832KiB time=00:02:25.16 bitrate=1401.4kbits/s speed=1.06x    size=   25088KiB time=00:02:25.73 bitrate=1410.2kbits/s speed=1.06x    size=   25088KiB time=00:02:26.18 bitrate=1405.9kbits/s speed=1.06x    size=   25088KiB time=00:02:26.57 bitrate=1402.2kbits/s speed=1.06x    size=   25344KiB time=00:02:27.14 bitrate=1410.9kbits/s speed=1.06x    size=   25344KiB time=00:02:27.64 bitrate=1406.2kbits/s speed=1.06x    size=   25344KiB time=00:02:28.16 bitrate=1401.2kbits/s speed=1.06x    size=   25600KiB time=00:02:28.68 bitrate=1410.4kbits/s speed=1.06x    size=   25600KiB time=00:02:29.18 bitrate=1405.7kbits/s speed=1.06x    size=   25600KiB time=00:02:29.76 bitrate=1400.3kbits/s speed=1.06x    size=   25856KiB time=00:02:30.15 bitrate=1410.7kbits/s speed=1.06x    size=   25856KiB time=00:02:30.80 bitrate=1404.5kbits/s speed=1.06x    size=   25856KiB time=00:02:31.24 bitrate=1400.4kbits/s speed=1.06x    size=   26112KiB time=00:02:31.69 bitrate=1410.1kbits/s speed=1.06x    size=   26112KiB time=00:02:32.26 bitrate=1404.8kbits/s speed=1.06x    size=   26112KiB time=00:02:32.71 bitrate=1400.7kbits/s speed=1.06x    size=   26368KiB time=00:02:33.23 bitrate=1409.6kbits/s speed=1.06x    size=   26368KiB time=00:02:33.67 bitrate=1405.6kbits/s speed=1.06x    size=   26368KiB time=00:02:34.12 bitrate=1401.5kbits/s speed=1.06x    size=   26624KiB time=00:02:34.77 bitrate=1409.2kbits/s speed=1.06x    size=   26624KiB time=00:02:35.16 bitrate=1405.6kbits/s speed=1.06x    size=   26624KiB time=00:02:35.79 bitrate=1399.9kbits/s speed=1.06x    size=   26880KiB time=00:02:36.23 bitrate=1409.4kbits/s speed=1.06x    size=   26880KiB time=00:02:36.70 bitrate=1405.2kbits/s speed=1.05x    size=   26880KiB time=00:02:37.20 bitrate=1400.7kbits/s speed=1.05x    size=   27136KiB time=00:02:37.72 bitrate=1409.4kbits/s speed=1.05x    size=   27136KiB time=00:02:38.24 bitrate=1404.7kbits/s speed=1.05x    size=   27136KiB time=00:02:38.69 bitrate=1400.8kbits/s speed=1.05x    size=   27392KiB time=00:02:39.19 bitrate=1409.6kbits/s speed=1.05x    size=   27392KiB time=00:02:39.71 bitrate=1405.0kbits/s speed=1.05x    size=   27392KiB time=00:02:40.28 bitrate=1400.0kbits/s speed=1.05x    size=   27648KiB time=00:02:40.80 bitrate=1408.4kbits/s speed=1.05x    size=   27648KiB time=00:02:41.30 bitrate=1404.1kbits/s speed=1.05x    size=   27648KiB time=00:02:41.77 bitrate=1400.0kbits/s speed=1.05x    size=   27904KiB time=00:02:42.35 bitrate=1408.0kbits/s speed=1.05x    size=   27904KiB time=00:02:42.79 bitrate=1404.2kbits/s speed=1.05x    size=   27904KiB time=00:02:43.31 bitrate=1399.7kbits/s speed=1.05x    size=   28160KiB time=00:02:43.76 bitrate=1408.7kbits/s speed=1.05x    size=   28160KiB time=00:02:44.33 bitrate=1403.7kbits/s speed=1.05x    size=   28160KiB time=00:02:44.83 bitrate=1399.5kbits/s speed=1.05x    size=   28416KiB time=00:02:45.35 bitrate=1407.8kbits/s speed=1.05x    size=   28416KiB time=00:02:45.87 bitrate=1403.3kbits/s speed=1.05x    size=   28416KiB time=00:02:46.32 bitrate=1399.6kbits/s speed=1.05x    size=   28672KiB time=00:02:46.76 bitrate=1408.4kbits/s speed=1.05x    size=   28672KiB time=00:02:47.28 bitrate=1404.1kbits/s speed=1.05x    size=   28672KiB time=00:02:47.78 bitrate=1399.9kbits/s speed=1.05x    size=   28928KiB time=00:02:48.43 bitrate=1406.9kbits/s speed=1.05x    size=   28928KiB time=00:02:48.88 bitrate=1403.2kbits/s speed=1.05x    size=   28928KiB time=00:02:49.27 bitrate=1400.0kbits/s speed=1.05x    size=   29184KiB time=00:02:49.71 bitrate=1408.7kbits/s speed=1.05x    size=   29184KiB time=00:02:50.24 bitrate=1404.3kbits/s speed=1.05x    size=   29184KiB time=00:02:50.86 bitrate=1399.2kbits/s speed=1.05x    size=   29440KiB time=00:02:51.33 bitrate=1407.6kbits/s speed=1.05x    size=   29440KiB time=00:02:51.83 bitrate=1403.5kbits/s speed=1.05x    size=   29440KiB time=00:02:52.35 bitrate=1399.3kbits/s speed=1.05x    size=   29696KiB time=00:02:52.93 bitrate=1406.7kbits/s speed=1.05x    size=   29696KiB time=00:02:53.45 bitrate=1402.5kbits/s speed=1.05x    size=   29952KiB time=00:02:53.89 bitrate=1411.0kbits/s speed=1.05x    size=   29952KiB time=00:02:54.39 bitrate=1407.0kbits/s speed=1.05x    size=   29952KiB time=00:02:54.91 bitrate=1402.8kbits/s speed=1.05x    size=   29952KiB time=00:02:55.43 bitrate=1398.6kbits/s speed=1.05x    size=   30208KiB time=00:02:55.88 bitrate=1407.0kbits/s speed=1.05x    size=   30208KiB time=00:02:56.37 bitrate=1403.0kbits/s speed=1.05x    size=   30208KiB time=00:02:56.84 bitrate=1399.3kbits/s speed=1.05x    size=   30464KiB time=00:02:57.34 bitrate=1407.2kbits/s speed=1.05x    size=   30464KiB time=00:02:57.86 bitrate=1403.1kbits/s speed=1.05x    size=   30720KiB time=00:02:58.44 bitrate=1410.3kbits/s speed=1.05x    size=   30720KiB time=00:02:58.96 bitrate=1406.2kbits/s speed=1.05x    size=   30720KiB time=00:02:59.46 bitrate=1402.3kbits/s speed=1.05x    size=   30976KiB time=00:02:59.93 bitrate=1410.3kbits/s speed=1.05x    size=   30976KiB time=00:03:00.37 bitrate=1406.8kbits/s speed=1.05x    size=   30976KiB time=00:03:00.87 bitrate=1403.0kbits/s speed=1.05x    size=   31232KiB time=00:03:01.39 bitrate=1410.5kbits/s speed=1.05x    size=   31232KiB time=00:03:02.04 bitrate=1405.4kbits/s speed=1.05x    size=   31232KiB time=00:03:02.49 bitrate=1402.0kbits/s speed=1.05x    size=   31488KiB time=00:03:02.88 bitrate=1410.5kbits/s speed=1.05x    size=   31488KiB time=00:03:03.45 bitrate=1406.0kbits/s speed=1.05x    size=   31488KiB time=00:03:03.95 bitrate=1402.2kbits/s speed=1.05x    size=   31744KiB time=00:03:04.52 bitrate=1409.2kbits/s speed=1.05x    size=   31744KiB time=00:03:04.99 bitrate=1405.7kbits/s speed=1.05x    size=   31744KiB time=00:03:05.49 bitrate=1401.9kbits/s speed=1.05x    size=   32000KiB time=00:03:06.07 bitrate=1408.8kbits/s speed=1.05x    size=   32000KiB time=00:03:06.46 bitrate=1405.9kbits/s speed=1.05x    size=   32000KiB time=00:03:06.90 bitrate=1402.5kbits/s speed=1.05x    size=   32256KiB time=00:03:07.42 bitrate=1409.8kbits/s speed=1.05x    size=   32256KiB time=00:03:08.00 bitrate=1405.5kbits/s speed=1.05x    size=   32256KiB time=00:03:08.57 bitrate=1401.2kbits/s speed=1.05x    size=   32512KiB time=00:03:08.96 bitrate=1409.4kbits/s speed=1.04x    size=   32512KiB time=00:03:09.54 bitrate=1405.1kbits/s speed=1.05x    size=   32512KiB time=00:03:09.98 bitrate=1401.9kbits/s speed=1.04x    size=   32768KiB time=00:03:10.51 bitrate=1409.0kbits/s speed=1.04x    size=   32768KiB time=00:03:11.08 bitrate=1404.8kbits/s speed=1.04x    size=   32768KiB time=00:03:11.47 bitrate=1401.9kbits/s speed=1.04x    size=   33024KiB time=00:03:12.10 bitrate=1408.3kbits/s speed=1.04x    size=   33024KiB time=00:03:12.54 bitrate=1405.0kbits/s speed=1.04x    size=   33024KiB time=00:03:13.07 bitrate=1401.2kbits/s speed=1.04x    size=   33280KiB time=00:03:13.51 bitrate=1408.8kbits/s speed=1.04x    size=   33280KiB time=00:03:13.95 bitrate=1405.6kbits/s speed=1.04x    size=   33280KiB time=00:03:14.48 bitrate=1401.8kbits/s speed=1.04x    size=   33536KiB time=00:03:15.00 bitrate=1408.8kbits/s speed=1.04x    size=   33536KiB time=00:03:15.63 bitrate=1404.3kbits/s speed=1.04x    size=   33536KiB time=00:03:16.02 bitrate=1401.5kbits/s speed=1.04x    size=   33792KiB time=00:03:16.59 bitrate=1408.1kbits/s speed=1.04x    size=   33792KiB time=00:03:17.12 bitrate=1404.3kbits/s speed=1.04x    size=   33792KiB time=00:03:17.61 bitrate=1400.8kbits/s speed=1.04x    size=   34048KiB time=00:03:18.08 bitrate=1408.1kbits/s speed=1.04x    size=   34048KiB time=00:03:18.58 bitrate=1404.6kbits/s speed=1.04x    size=   34048KiB time=00:03:19.10 bitrate=1400.9kbits/s speed=1.04x    size=   34304KiB time=00:03:19.68 bitrate=1407.3kbits/s speed=1.04x    size=   34304KiB time=00:03:20.07 bitrate=1404.6kbits/s speed=1.04x    size=   34560KiB time=00:03:20.64 bitrate=1411.0kbits/s speed=1.04x    size=   34560KiB time=00:03:21.01 bitrate=1408.4kbits/s speed=1.04x    size=   34560KiB time=00:03:21.61 bitrate=1404.3kbits/s speed=1.04x    size=   34560KiB time=00:03:22.10 bitrate=1400.8kbits/s speed=1.04x    size=   34816KiB time=00:03:22.63 bitrate=1407.5kbits/s speed=1.04x    size=   34816KiB time=00:03:23.12 bitrate=1404.1kbits/s speed=1.04x    size=   34816KiB time=00:03:23.59 bitrate=1400.9kbits/s speed=1.04x    size=   35072KiB time=00:03:24.04 bitrate=1408.1kbits/s speed=1.04x    size=   35072KiB time=00:03:24.56 bitrate=1404.5kbits/s speed=1.04x    size=   35072KiB time=00:03:25.06 bitrate=1401.1kbits/s speed=1.04x    size=   35328KiB time=00:03:25.71 bitrate=1406.8kbits/s speed=1.04x    size=   35328KiB time=00:03:26.15 bitrate=1403.8kbits/s speed=1.04x    size=   35584KiB time=00:03:26.60 bitrate=1410.9kbits/s speed=1.04x    size=   35584KiB time=00:03:27.12 bitrate=1407.4kbits/s speed=1.04x    size=   35584KiB time=00:03:27.62 bitrate=1404.0kbits/s speed=1.04x    size=   35840KiB time=00:03:28.14 bitrate=1410.6kbits/s speed=1.04x    size=   35840KiB time=00:03:28.66 bitrate=1407.0kbits/s speed=1.04x    size=   35840KiB time=00:03:29.24 bitrate=1403.2kbits/s speed=1.04x    size=   36096KiB time=00:03:29.73 bitrate=1409.9kbits/s speed=1.04x    size=   36096KiB time=00:03:30.20 bitrate=1406.7kbits/s speed=1.04x    size=   36096KiB time=00:03:30.70 bitrate=1403.4kbits/s speed=1.04x    size=   36352KiB time=00:03:31.14 bitrate=1410.4kbits/s speed=1.04x    size=   36352KiB time=00:03:31.67 bitrate=1406.9kbits/s speed=1.04x    size=   36352KiB time=00:03:32.24 bitrate=1403.1kbits/s speed=1.04x    size=   36608KiB time=00:03:32.68 bitrate=1410.0kbits/s speed=1.04x    size=   36608KiB time=00:03:33.21 bitrate=1406.6kbits/s speed=1.04x    size=   36608KiB time=00:03:33.65 bitrate=1403.6kbits/s speed=1.04x    size=   36864KiB time=00:03:34.09 bitrate=1410.5kbits/s speed=1.04x    size=   36864KiB time=00:03:34.75 bitrate=1406.2kbits/s speed=1.04x    size=   36864KiB time=00:03:35.14 bitrate=1403.7kbits/s speed=1.04x    size=   37120KiB time=00:03:35.77 bitrate=1409.3kbits/s speed=1.04x    size=   37120KiB time=00:03:36.21 bitrate=1406.4kbits/s speed=1.04x    size=   37120KiB time=00:03:36.68 bitrate=1403.4kbits/s speed=1.04x    size=   37376KiB time=00:03:37.18 bitrate=1409.8kbits/s speed=1.04x    size=   37376KiB time=00:03:37.62 bitrate=1406.9kbits/s speed=1.04x    size=   37376KiB time=00:03:38.33 bitrate=1402.4kbits/s speed=1.04x    size=   37632KiB time=00:03:38.67 bitrate=1409.8kbits/s speed=1.04x    size=   37632KiB time=00:03:39.16 bitrate=1406.6kbits/s speed=1.04x    size=   37632KiB time=00:03:39.76 bitrate=1402.8kbits/s speed=1.04x    size=   37888KiB time=00:03:40.26 bitrate=1409.1kbits/s speed=1.04x    size=   37888KiB time=00:03:40.78 bitrate=1405.8kbits/s speed=1.04x    size=   37888KiB time=00:03:41.23 bitrate=1403.0kbits/s speed=1.04x    size=   38144KiB time=00:03:41.75 bitrate=1409.1kbits/s speed=1.04x    size=   38144KiB time=00:03:42.38 bitrate=1405.1kbits/s speed=1.04x    size=   38144KiB time=00:03:42.77 bitrate=1402.7kbits/s speed=1.04x    size=   38400KiB time=00:03:43.34 bitrate=1408.4kbits/s speed=1.04x    size=   38400KiB time=00:03:43.73 bitrate=1406.0kbits/s speed=1.04x    size=   38400KiB time=00:03:44.18 bitrate=1403.2kbits/s speed=1.04x    size=   38656KiB time=00:03:44.75 bitrate=1408.9kbits/s speed=1.04x    size=   38656KiB time=00:03:45.28 bitrate=1405.7kbits/s speed=1.04x    size=   38656KiB time=00:03:45.77 bitrate=1402.6kbits/s speed=1.04x    size=   38912KiB time=00:03:46.29 bitrate=1408.6kbits/s speed=1.04x    size=   38912KiB time=00:03:46.74 bitrate=1405.9kbits/s speed=1.04x    size=   38912KiB time=00:03:47.26 bitrate=1402.6kbits/s speed=1.04x    size=   39168KiB time=00:03:47.70 bitrate=1409.1kbits/s speed=1.04x    size=   39168KiB time=00:03:48.36 bitrate=1405.1kbits/s speed=1.04x    size=   39168KiB time=00:03:48.72 bitrate=1402.8kbits/s speed=1.04x    size=   39424KiB time=00:03:49.38 bitrate=1408.0kbits/s speed=1.04x    size=   39424KiB time=00:03:49.82 bitrate=1405.2kbits/s speed=1.04x    size=   39424KiB time=00:03:50.26 bitrate=1402.5kbits/s speed=1.04x    size=   39680KiB time=00:03:50.79 bitrate=1408.4kbits/s speed=1.04x    size=   39680KiB time=00:03:51.31 bitrate=1405.3kbits/s speed=1.04x    size=   39680KiB time=00:03:51.75 bitrate=1402.6kbits/s speed=1.04x    size=   39936KiB time=00:03:52.33 bitrate=1408.1kbits/s speed=1.04x    size=   39936KiB time=00:03:52.77 bitrate=1405.4kbits/s speed=1.04x    size=   40192KiB time=00:03:53.43 bitrate=1410.5kbits/s speed=1.04x    size=   40192KiB time=00:03:53.87 bitrate=1407.8kbits/s speed=1.04x    size=   40192KiB time=00:03:54.37 bitrate=1404.8kbits/s speed=1.04x    size=   40448KiB time=00:03:54.84 bitrate=1411.0kbits/s speed=1.04x    size=   40448KiB time=00:03:55.54 bitrate=1406.7kbits/s speed=1.04x    size=   40448KiB time=00:03:55.85 bitrate=1404.9kbits/s speed=1.04x    size=   40704KiB time=00:03:56.38 bitrate=1410.6kbits/s speed=1.04x    size=   40704KiB time=00:03:56.95 bitrate=1407.2kbits/s speed=1.04x    size=   40704KiB time=00:03:57.32 bitrate=1405.0kbits/s speed=1.04x    size=   40704KiB time=00:03:57.79 bitrate=1402.3kbits/s speed=1.04x    size=   40960KiB time=00:03:58.41 bitrate=1407.4kbits/s speed=1.04x    size=   40960KiB time=00:03:58.73 bitrate=1405.5kbits/s speed=1.03x    size=   41216KiB time=00:03:59.43 bitrate=1410.1kbits/s speed=1.04x    size=   41216KiB time=00:03:59.90 bitrate=1407.4kbits/s speed=1.04x    [out#0/wav @ 0x60000370c000] video:0KiB audio:41344KiB subtitle:0KiB other streams:0KiB global headers:0KiB muxing overhead: 0.000184%
size=   41344KiB time=00:04:00.00 bitrate=1411.2kbits/s speed=1.03x    
